<svg xmlns="http://www.w3.org/2000/svg" xmlns:xlink="http://www.w3.org/1999/xlink" width="54" height="54" viewBox="0 0 54 54">
  <defs>
    <filter id="Elipse_3" x="0" y="0" width="54" height="54" filterUnits="userSpaceOnUse">
      <feOffset dy="3" input="SourceAlpha"/>
      <feGaussianBlur stdDeviation="3" result="blur"/>
      <feFlood flood-opacity="0.161"/>
      <feComposite operator="in" in2="blur"/>
      <feComposite in="SourceGraphic"/>
    </filter>
  </defs>
  <g id="Botón-Home" transform="translate(-41 -59)">
    <g transform="matrix(1, 0, 0, 1, 41, 59)" filter="url(#Elipse_3)">
      <circle id="Elipse_3-2" data-name="Elipse 3" cx="18" cy="18" r="18" transform="translate(9 6)" fill="#fff"/>
    </g>
    <path id="home" d="M20.275,9.063h0l-8.5-8.5a1.918,1.918,0,0,0-2.713,0l-8.5,8.5-.009.009a1.917,1.917,0,0,0,1.277,3.268l.059,0h.339v6.255a2.248,2.248,0,0,0,2.245,2.245H7.8a.611.611,0,0,0,.61-.61v-4.9A1.025,1.025,0,0,1,9.436,14.3H11.4a1.025,1.025,0,0,1,1.024,1.024v4.9a.61.61,0,0,0,.61.61h3.325A2.248,2.248,0,0,0,18.6,18.592V12.337h.314a1.918,1.918,0,0,0,1.357-3.274Zm0,0" transform="translate(57.501 73)" fill="#a4c7da" stroke="#fff" stroke-width="1"/>
  </g>
</svg>
