<svg xmlns="http://www.w3.org/2000/svg" xmlns:xlink="http://www.w3.org/1999/xlink" width="54" height="54" viewBox="0 0 54 54">
  <defs>
    <filter id="Elipse_2" x="0" y="0" width="54" height="54" filterUnits="userSpaceOnUse">
      <feOffset dy="3" input="SourceAlpha"/>
      <feGaussianBlur stdDeviation="3" result="blur"/>
      <feFlood flood-opacity="0.161"/>
      <feComposite operator="in" in2="blur"/>
      <feComposite in="SourceGraphic"/>
    </filter>
  </defs>
  <g id="Botón-Back" transform="translate(-41 -13)">
    <g transform="matrix(1, 0, 0, 1, 41, 13)" filter="url(#Elipse_2)">
      <circle id="Elipse_2-2" data-name="Elipse 2" cx="18" cy="18" r="18" transform="translate(9 6)" fill="#fff"/>
    </g>
    <g id="atras-2" transform="translate(55 -29.408)">
      <g id="Grupo_21" data-name="Grupo 21" transform="translate(0 56.408)">
        <path id="Trazado_3" data-name="Trazado 3" d="M25.761,64.494a3.279,3.279,0,0,0-2.335-.966H11.264l1.486-1.486a3.3,3.3,0,1,0-4.664-4.667L.971,64.489a3.3,3.3,0,0,0,0,4.674l7.114,7.114a3.3,3.3,0,1,0,4.667-4.664l-1.487-1.487H23.428a3.3,3.3,0,0,0,2.333-5.632Z" transform="translate(0 -56.408)" fill="#a4c7da" stroke="#fbfbfb" stroke-width="2"/>
      </g>
    </g>
  </g>
</svg>
