<svg xmlns="http://www.w3.org/2000/svg" width="169" height="69" viewBox="0 0 169 69">
  <g id="Grupo_906" data-name="Grupo 906" transform="translate(-197 -334)">
    <path id="Polígono_8" data-name="Polígono 8" d="M59.6,4.743a6,6,0,0,1,8.8,0L118.65,58.92a6,6,0,0,1-4.4,10.08H13.749a6,6,0,0,1-4.4-10.08Z" transform="translate(197 334)" fill="#d6d6d6"/>
    <path id="Polígono_9" data-name="Polígono 9" d="M37.342,3.926a5,5,0,0,1,7.316,0L74.165,35.591A5,5,0,0,1,70.507,44H11.493a5,5,0,0,1-3.658-8.409Z" transform="translate(284 359)" fill="#d6d6d6"/>
    <circle id="Elipse_378" data-name="Elipse 378" cx="9" cy="9" r="9" transform="translate(290 341)" fill="#d6d6d6"/>
  </g>
</svg>
