<svg xmlns="http://www.w3.org/2000/svg" width="194" height="96.115" viewBox="0 0 194 96.115"><defs><style>.a{fill:#a2ddfd;}.b{fill:#7acefa;}.c{fill:#fbf1cf;}.d{fill:#fae0bd;}.e{fill:#b0ade2;}.f{fill:#eda1ab;}.g{fill:#4e5660;}.h{fill:#a09cdc;}</style></defs><g transform="translate(0 -129.168)"><path class="a" d="M27.261,245.858a10.93,10.93,0,0,0,0,21.861H10.93a10.93,10.93,0,0,0,0,21.861h54V245.858H27.261Z" transform="translate(0 -72.475)"/><path class="b" d="M86.286,249.7c0,8.643.549,25.291,4.223,39.678.017.067.038.134.055.2h27.953V245.858h-32.2c-.025,1.4-.036,2.7-.036,3.843Z" transform="translate(-53.592 -72.475)"/><path class="c" d="M191.99,129.168c19.7,0,49.189,1.349,62.7,3.672a10.312,10.312,0,0,1,8.234,7.6c2.99,11.709,3.859,26.01,3.859,36.781s-.869,25.073-3.859,36.781a10.312,10.312,0,0,1-8.234,7.6c-13.515,2.324-43,3.672-62.7,3.672s-49.189-1.349-62.7-3.672a10.312,10.312,0,0,1-8.234-7.6c-2.99-11.708-3.859-26.01-3.859-36.781s.869-25.073,3.859-36.781a10.312,10.312,0,0,1,8.234-7.6c13.515-2.324,43-3.672,62.7-3.672Z" transform="translate(-72.788)"/><path class="d" d="M149.916,133c14.1,15.358,36.763,30.966,51.83,38.19a24.442,24.442,0,0,0,5.144,1.793c-7.658-13.189-9.313-34.326-6.055-43.475-18.187.386-39.755,1.616-50.92,3.492Z" transform="translate(-93.112 -0.213)"/><path class="d" d="M266.376,146.38a10.312,10.312,0,0,0-8.234-7.6l-.3-.051c-14.1,15.359-36.763,30.967-51.831,38.191a24.444,24.444,0,0,1-21.137,0c-15.068-7.224-37.731-22.833-51.831-38.191l-.305.051a10.312,10.312,0,0,0-8.234,7.6c-.7,2.728-1.274,5.6-1.756,8.531,14.768,16.76,39.378,34.221,57.064,42.7a36.154,36.154,0,0,0,31.262,0c17.686-8.48,42.3-25.94,57.063-42.7-.483-2.932-1.06-5.8-1.757-8.531Z" transform="translate(-76.235 -5.936)"/><path class="e" d="M265.322,136.4c-3.25-.559-7.428-1.061-12.166-1.5-14.292,13.472-31.663,26.308-43.1,31.916a16.889,16.889,0,0,1-14.884,0c-11.433-5.608-28.8-18.443-43.1-31.916-4.738.441-8.917.942-12.166,1.5a10.288,10.288,0,0,0-5.61,2.952c12.753,17.42,40.329,36.973,57.746,45.323a24.444,24.444,0,0,0,21.137,0c17.417-8.35,44.992-27.9,57.745-45.323a10.291,10.291,0,0,0-5.61-2.952Z" transform="translate(-83.415 -3.559)"/><g transform="translate(62.217 182.197)"><g transform="translate(95.367)"><path class="d" d="M431.654,287.726a2.833,2.833,0,0,1-2.01-.832l-12.921-12.921a2.842,2.842,0,0,1,4.019-4.019l12.921,12.921a2.842,2.842,0,0,1-2.009,4.852Z" transform="translate(-415.891 -269.121)"/></g><g transform="translate(0 0)"><path class="d" d="M167.042,287.726a2.842,2.842,0,0,1-2.009-4.851l12.921-12.921a2.842,2.842,0,0,1,4.019,4.019l-12.921,12.921a2.835,2.835,0,0,1-2.009.832Z" transform="translate(-164.2 -269.122)"/></g></g><g transform="translate(74.548 192.404)"><g transform="translate(0 8.16)"><ellipse class="f" cx="12.036" cy="9.585" rx="12.036" ry="9.585"/><ellipse class="f" cx="12.036" cy="9.585" rx="12.036" ry="9.585" transform="translate(65.238)"/></g><g transform="translate(16.208)"><path class="g" d="M242.363,308.735a2.842,2.842,0,0,1-2.842-2.842v-4.684a2.842,2.842,0,1,1,5.684,0v4.684A2.842,2.842,0,0,1,242.363,308.735Z" transform="translate(-239.521 -297.492)"/><path class="g" d="M298.872,319.413a11.8,11.8,0,0,1-8.893-4.05,2.842,2.842,0,1,1,4.285-3.734,6.1,6.1,0,0,0,9.216,0,2.842,2.842,0,1,1,4.285,3.734,11.793,11.793,0,0,1-8.893,4.05Z" transform="translate(-270.426 -305.124)"/><path class="g" d="M376.43,307.171a2.842,2.842,0,0,1-2.842-2.842,2.586,2.586,0,1,0-5.172,0,2.842,2.842,0,0,1-5.684,0,8.27,8.27,0,1,1,16.54,0A2.842,2.842,0,0,1,376.43,307.171Z" transform="translate(-316.047 -296.059)"/></g></g><path class="h" d="M207.776,186.522c-7.3-2.98-12.266-11.444-15.149-21.026-11.361-6.136-27.279-18.09-40.547-30.6-4.738.441-8.917.942-12.166,1.5a10.288,10.288,0,0,0-5.61,2.952c12.753,17.42,40.329,36.973,57.745,45.323A24.437,24.437,0,0,0,207.776,186.522Z" transform="translate(-83.415 -3.559)"/></g></svg>