<?xml version="1.0" encoding="utf-8"?>
<!-- Generator: Adobe Illustrator 23.0.0, SVG Export Plug-In . SVG Version: 6.00 Build 0)  -->
<svg version="1.1" id="Layer_1" xmlns="http://www.w3.org/2000/svg" xmlns:xlink="http://www.w3.org/1999/xlink" x="0px" y="0px"
	 viewBox="0 0 512 512" style="enable-background:new 0 0 512 512;" xml:space="preserve">
<style type="text/css">
	.st0{fill:none;stroke:#000000;stroke-width:10;stroke-linecap:round;stroke-linejoin:round;stroke-miterlimit:10;}
</style>
<g>
	<path class="st0" d="M204.8,255.3c0,6.7-2.7,12.7-7.1,17.1c-4.4,4.4-10.4,7.1-17.1,7.1c-6.7,0-12.7-2.7-17.1-7.1
		c-4.4-4.4-7.1-10.4-7.1-17.1s2.7-12.7,7.1-17.1s10.4-7.1,17.1-7.1c6.7,0,12.7,2.7,17.1,7.1C202.1,242.6,204.8,248.6,204.8,255.3z"
		/>
	<path class="st0" d="M355.5,183.7c0,6.7-2.7,12.7-7.1,17.1s-10.4,7.1-17.1,7.1s-12.7-2.7-17.1-7.1s-7.1-10.4-7.1-17.1
		c0-6.7,2.7-12.7,7.1-17.1c4.4-4.4,10.4-7.1,17.1-7.1s12.7,2.7,17.1,7.1S355.5,177,355.5,183.7z"/>
	<line class="st0" x1="204.8" y1="256" x2="307.2" y2="195"/>
	<path class="st0" d="M355.5,328.3c0-6.7-2.7-12.7-7.1-17.1s-10.4-7.1-17.1-7.1s-12.7,2.7-17.1,7.1s-7.1,10.4-7.1,17.1
		s2.7,12.7,7.1,17.1s10.4,7.1,17.1,7.1s12.7-2.7,17.1-7.1S355.5,335,355.5,328.3z"/>
	<line class="st0" x1="204.8" y1="256" x2="307.2" y2="317"/>
</g>
</svg>
