<svg xmlns="http://www.w3.org/2000/svg" xmlns:xlink="http://www.w3.org/1999/xlink" width="49" height="49" viewBox="0 0 49 49"><defs><style>.a{isolation:isolate;}.b,.c{fill:#fff;}.b{opacity:0.25;}.d{filter:url(#a);}</style><filter id="a" x="0" y="0" width="49" height="49" filterUnits="userSpaceOnUse"><feOffset dy="3" input="SourceAlpha"/><feGaussianBlur stdDeviation="1.5" result="b"/><feFlood flood-opacity="0.161"/><feComposite operator="in" in2="b"/><feComposite in="SourceGraphic"/></filter></defs><g class="a" transform="translate(4.5 1.5)"><g class="d" transform="matrix(1, 0, 0, 1, -4.5, -1.5)"><path class="b" d="M20,0A20,20,0,1,0,40,20,20,20,0,0,0,20,0Z" transform="translate(4.5 1.5)"/></g><g transform="translate(16.602 10.128)"><g transform="translate(0 0)"><path class="c" d="M396.6,9.33,387.464.224a.765.765,0,1,0-1.081,1.083l8.588,8.565-8.588,8.565a.765.765,0,1,0,1.081,1.083l9.132-9.106a.762.762,0,0,0,.225-.542A.772.772,0,0,0,396.6,9.33Z" transform="translate(-386.158 0)"/></g></g></g></svg>