<svg xmlns="http://www.w3.org/2000/svg" xmlns:xlink="http://www.w3.org/1999/xlink" width="72" height="72" viewBox="0 0 72 72"><defs><filter id="a" x="0" y="0" width="72" height="72" filterUnits="userSpaceOnUse"><feOffset dy="3" input="SourceAlpha"/><feGaussianBlur stdDeviation="1.5" result="b"/><feFlood flood-opacity="0.161"/><feComposite operator="in" in2="b"/><feComposite in="SourceGraphic"/></filter></defs><g transform="translate(6.167 3.173)"><g transform="translate(0)" style="isolation:isolate"><g transform="matrix(1, 0, 0, 1, -6.17, -3.17)" filter="url(#a)"><circle cx="30" cy="30" r="30" transform="translate(6 3)" fill="#707070" stroke="#fff" stroke-width="3"/></g></g><g transform="translate(13.484 11.853)" style="isolation:isolate"><path d="M109.182,73.843a3.39,3.39,0,0,0-4.794,0L91.867,86.377a5.126,5.126,0,0,0,0,7.248,5.246,5.246,0,0,0,7.248,0l2.034-2.034v13.093a5.65,5.65,0,1,0,11.3,0V91.591l2.034,2.034a5.246,5.246,0,0,0,7.248,0,5.126,5.126,0,0,0,0-7.248Z" transform="translate(-90.366 -72.85)" fill="#fafafa"/></g></g></svg>