<svg xmlns="http://www.w3.org/2000/svg" width="72" height="54" viewBox="0 0 72 54"><g transform="translate(-362.285 -128)"><path d="M388.285,138a13.5,13.5,0,1,0,13.5,13.5A13.5,13.5,0,0,0,388.285,138Zm0,22.5a9,9,0,1,1,9-9A9,9,0,0,1,388.285,160.5Z" transform="translate(10 8)" fill="#fff"/><path d="M434.285,175.25v-31.5a6.757,6.757,0,0,0-6.75-6.75H411.292l-1.823-7.3a2.249,2.249,0,0,0-2.183-1.7h-18a2.252,2.252,0,0,0-2.183,1.7l-1.823,7.3H369.035a6.757,6.757,0,0,0-6.75,6.75v31.5a6.757,6.757,0,0,0,6.75,6.75h58.5A6.757,6.757,0,0,0,434.285,175.25ZM391.042,132.5h14.486l1.125,4.5H389.917Zm-24.257,42.75v-31.5a2.253,2.253,0,0,1,2.25-2.25h58.5a2.253,2.253,0,0,1,2.25,2.25v31.5a2.253,2.253,0,0,1-2.25,2.25h-58.5A2.253,2.253,0,0,1,366.785,175.25Z" transform="translate(0 0)" fill="#fff"/></g></svg>