<svg xmlns="http://www.w3.org/2000/svg" width="42.334" height="19.312" viewBox="0 0 42.334 19.312"><defs><style>.a,.b{fill:#fff;}.b{font-size:14px;font-family:Bogle-Black, Bogle;font-weight:800;}</style></defs><g transform="translate(-162.666 -441.466)"><g transform="translate(162.667 442.466)"><g transform="translate(-0.001 5.951)"><path class="a" d="M1183.857,434.4a1.333,1.333,0,0,0,.488-1.022,1.433,1.433,0,0,0-1.483-1.379h-2.722a1.433,1.433,0,0,0-1.481,1.379v2.535a1.433,1.433,0,0,0,1.481,1.379,1.475,1.475,0,0,0,1.417-.972c1.228.623,1.541,1.13,1.541,1.31,0,.306-.864,1.416-4.7,2.458a61.062,61.062,0,0,1-27.009,0c-3.835-1.042-4.7-2.152-4.7-2.458,0-.221.5-.981,2.755-1.838a1.348,1.348,0,0,0,.814-1.8,1.523,1.523,0,0,0-1.932-.758c-3.052,1.157-4.6,2.634-4.6,4.393,0,.826.38,2.056,2.187,3.219a17.037,17.037,0,0,0,4.645,1.889,64.137,64.137,0,0,0,28.668,0,17.08,17.08,0,0,0,4.646-1.889c1.807-1.163,2.187-2.392,2.187-3.219C1186.063,436.417,1185.322,435.335,1183.857,434.4Z" transform="translate(-1143.729 -432)"/></g><text class="b" transform="translate(23.271 10)"><tspan x="-14.098" y="0">360°</tspan></text></g></g></svg>