<?xml version="1.0" encoding="utf-8"?>
<!-- Generator: Adobe Illustrator 23.0.0, SVG Export Plug-In . SVG Version: 6.00 Build 0)  -->
<svg version="1.1" id="Mail" xmlns="http://www.w3.org/2000/svg" xmlns:xlink="http://www.w3.org/1999/xlink" x="0px" y="0px"
	 viewBox="0 0 139 139" style="enable-background:new 0 0 139 139;" xml:space="preserve">
<style type="text/css">
	background:#fff;
	*{fill:#FFFFFF;}
</style>
<path d="M69.5,64.5l46.4-28.9c-0.5-0.1-1-0.1-1.5-0.1H24.6c-0.5,0-1,0.1-1.5,0.1L69.5,64.5z"/>
<g >
	<path fill="purple" d="M83.3,97.3c0-7.8,3.1-15.2,8.6-20.7c5.5-5.5,12.9-8.6,20.7-8.6c4,0,7.9,0.8,11.5,2.3V45.2c0-0.6-0.1-1.1-0.2-1.7L72.4,75.7
		c-0.1,0-0.1,0.1-0.2,0.1c-0.1,0-0.1,0.1-0.2,0.1c-0.4,0.2-0.7,0.3-1.1,0.4c0,0-0.1,0-0.1,0c-0.4,0.1-0.8,0.2-1.3,0.2c0,0,0,0,0,0
		c0,0,0,0,0,0c-0.4,0-0.9-0.1-1.3-0.2c0,0-0.1,0-0.1,0c-0.4-0.1-0.8-0.3-1.1-0.4c-0.1,0-0.1-0.1-0.2-0.1c-0.1,0-0.1-0.1-0.2-0.1
		L15,43.6c-0.1,0.5-0.2,1.1-0.2,1.7v51.6c0,5.4,4.4,9.8,9.8,9.8h60.2C83.9,103.7,83.3,100.5,83.3,97.3z"/>
</g>
<g>
	<path class="st0" d="M131.3,78.7c-5.1-5.1-11.9-7.7-18.6-7.7c-6.7,0-13.5,2.6-18.6,7.7c-5,5-7.7,11.6-7.7,18.6s2.7,13.6,7.7,18.6
		c5.1,5.1,11.9,7.7,18.6,7.7c6.7,0,13.5-2.6,18.6-7.7C141.6,105.7,141.6,89,131.3,78.7z"/>
	<g>
		<g>
			<path d="M131.3,78.7c-10.3-10.3-27-10.3-37.2,0c-5,5-7.7,11.6-7.7,18.6c0,7,2.7,13.6,7.7,18.6c5.1,5.1,11.9,7.7,18.6,7.7
				c6.7,0,13.5-2.6,18.6-7.7C141.6,105.7,141.6,89,131.3,78.7z M128.4,113.1c-8.7,8.7-22.8,8.7-31.5,0c-4.2-4.2-6.5-9.8-6.5-15.7
				c0-5.9,2.3-11.5,6.5-15.7c8.7-8.7,22.8-8.7,31.5,0C137.1,90.3,137.1,104.4,128.4,113.1z"/>
		</g>
	</g>
	<g>
		<g>
			<path d="M114.8,107.4l0-8.2l8.2,0c1.1,0,2-0.9,2-2c0-1.1-0.9-2-2-2l-8.2,0l0-8.2c0-1.1-0.9-2-2-2c-1.1,0-2,0.9-2,2l0,8.2l-8.2,0
				c-1.1,0-2,0.9-2,2c0,0.6,0.2,1.1,0.6,1.4c0.4,0.4,0.9,0.6,1.4,0.6l8.2,0l0,8.2c0,0.6,0.2,1.1,0.6,1.4c0.4,0.4,0.9,0.6,1.4,0.6
				C113.9,109.4,114.9,108.5,114.8,107.4z"/>
		</g>
	</g>
</g>
</svg>
