<?xml version="1.0" encoding="utf-8"?>
<!-- Generator: Adobe Illustrator 23.0.0, SVG Export Plug-In . SVG Version: 6.00 Build 0)  -->
<svg version="1.1" id="Mail" xmlns="http://www.w3.org/2000/svg" xmlns:xlink="http://www.w3.org/1999/xlink" x="0px" y="0px"
	 viewBox="0 0 999.9 999.9" style="enable-background:new 0 0 999.9 999.9;" xml:space="preserve">
<style type="text/css">
	.st0{fill:#FFFFFF;}
</style>
<g>
	
		<image style="overflow:visible;opacity:0.75;" width="1031" height="1031" xlink:href="71CD6B2C.png"  transform="matrix(1 0 0 1 -8.9451 -8.6802)">
	</image>
	<g>
		<path class="st0" d="M791.7,0H208.3C93.3,0,0,93.3,0,208.3v583.3c0,115.1,93.3,208.3,208.3,208.3h583.3
			c115.1,0,208.3-93.3,208.3-208.3V208.3C1000,93.3,906.7,0,791.7,0z M261.2,310.6h477.6c2.8,0,5.5,0.3,8.2,0.7l-247,154l-247-154
			C255.6,310.9,258.4,310.6,261.2,310.6z M790.7,637.3c0,28.7-23.3,52-52,52H261.2c-28.7,0-52-23.3-52-52V362.6c0-3,0.3-6,0.8-8.9
			l274.4,171.1c0.3,0.2,0.7,0.4,1,0.6c0.4,0.2,0.7,0.4,1.1,0.6c2,1,3.9,1.8,6,2.3c0.2,0.1,0.4,0.1,0.6,0.1c2.2,0.5,4.5,0.9,6.8,0.9
			c0,0,0,0,0,0c0,0,0,0,0,0c2.3,0,4.5-0.3,6.8-0.9c0.2,0,0.4-0.1,0.6-0.1c2-0.5,4-1.3,6-2.3c0.4-0.2,0.7-0.4,1.1-0.6
			c0.3-0.2,0.7-0.3,1-0.6l274.4-171.1c0.5,2.9,0.8,5.8,0.8,8.9V637.3z"/>
	</g>
</g>
</svg>
