<svg id="Grupo_673" data-name="Grupo 673" xmlns="http://www.w3.org/2000/svg" width="174" height="174" viewBox="0 0 174 174">
  <path id="Trazado_1037" data-name="Trazado 1037" d="M174,146.222c0,1.152-.044,27.886-3.562,41.257a23.718,23.718,0,0,1-16.69,16.693,50.154,50.154,0,0,1-5.628,1.036h-.01c-18.369,2.5-59.177,2.531-61.11,2.531-2.165,0-53.222-.044-66.752-3.706a23.709,23.709,0,0,1-16.68-16.68C.041,174.1,0,147.221,0,146.082s.041-27.883,3.562-41.26a24.243,24.243,0,0,1,16.68-16.829C33.648,84.467,84.828,84.426,87,84.426c1.917,0,41.851.031,60.5,2.544a50.173,50.173,0,0,1,6.257,1.162,23.707,23.707,0,0,1,16.676,16.676c3.653,13.344,3.571,40.119,3.564,41.413Z" transform="translate(0 -55.734)" fill="#d9f0f4"/>
  <path id="Trazado_1038" data-name="Trazado 1038" d="M456.959,109.752c3.653,13.344,3.572,40.119,3.565,41.413,0,1.152-.044,27.886-3.562,41.257a23.718,23.718,0,0,1-16.69,16.693,50.15,50.15,0,0,1-5.628,1.036,24.812,24.812,0,0,0,15.449-16.886c3.589-13.643,3.633-40.921,3.633-42.1.007-1.321.088-28.64-3.636-42.255a24.6,24.6,0,0,0-16.064-17,50.175,50.175,0,0,1,6.257,1.162,23.7,23.7,0,0,1,16.676,16.675Z" transform="translate(-286.525 -60.678)" fill="#bae1e5"/>
  <path id="Trazado_1039" data-name="Trazado 1039" d="M183.608,165.968v.048c0,7.334-.578,28.569-3.218,38.634a13.5,13.5,0,0,1-9.451,9.467,48.253,48.253,0,0,1-6,1.012c-14.943,1.787-45.79,2.215-58.137,2.215-14.386,0-53.943-.6-64.1-3.356a13.46,13.46,0,0,1-9.478-9.457C30.585,194.612,30,173.268,30,165.88c0-7.331.578-28.566,3.218-38.631a13.9,13.9,0,0,1,9.465-9.613l.048-.01c10.151-2.633,49.695-3.21,64.074-3.21,12.319,0,43.027.438,57.967,2.276a46.449,46.449,0,0,1,6.1,1.067,13.508,13.508,0,0,1,9.522,9.5l.007.031C183.135,137.274,183.642,158.583,183.608,165.968Z" transform="translate(-19.805 -75.532)" fill="#ff6b81"/>
  <path id="Trazado_1040" data-name="Trazado 1040" d="M442.2,131.707c2.736,9.987,3.242,31.3,3.208,38.682v.048c0,7.334-.578,28.569-3.218,38.634a13.5,13.5,0,0,1-9.451,9.467,48.251,48.251,0,0,1-6,1.012,14.051,14.051,0,0,0,7.511-8.975c2.739-10.459,3.341-32.516,3.341-40.132v-.051c.037-7.671-.493-29.809-3.331-40.18l-.01-.031a14.024,14.024,0,0,0-7.68-9.07,46.446,46.446,0,0,1,6.1,1.067,13.508,13.508,0,0,1,9.522,9.5Z" transform="translate(-281.601 -79.953)" fill="#ed2061"/>
  <path id="Trazado_1041" data-name="Trazado 1041" d="M251.846,221.619,218.7,202.535a2.549,2.549,0,0,0-3.821,2.208v38.17a2.549,2.549,0,0,0,3.821,2.207l33.148-19.085a2.547,2.547,0,0,0,0-4.415Z" transform="translate(-141.853 -133.48)" fill="#fff"/>
  <path id="Trazado_1042" data-name="Trazado 1042" d="M317.335,8.472V40.944a8.48,8.48,0,0,1-8.476,8.472H290.994l-5.454,7.854a2.546,2.546,0,0,1-4.187,0L275.9,49.417H258.033a8.482,8.482,0,0,1-8.476-8.472V8.472A8.485,8.485,0,0,1,258.033,0h50.827a8.482,8.482,0,0,1,8.476,8.472Z" transform="translate(-164.747)" fill="#fbdf63"/>
  <path id="Trazado_1043" data-name="Trazado 1043" d="M334.61,43.683h0a7.63,7.63,0,0,0-10.775.006l-.195.195-.195-.195a7.579,7.579,0,0,0-5.387-2.234h-.006a7.61,7.61,0,0,0-5.376,13l9.762,9.758a1.7,1.7,0,0,0,2.4,0l9.762-9.758a7.621,7.621,0,0,0,.007-10.77Z" transform="translate(-204.94 -27.367)" fill="#fff"/>
  <path id="Trazado_1044" data-name="Trazado 1044" d="M153.818,384.5v23.311a7.8,7.8,0,0,1-7.789,7.789H96.4a7.8,7.8,0,0,1-7.789-7.789v-39.29A2.549,2.549,0,0,1,92.7,366.49l13.451,10.222h39.877a7.8,7.8,0,0,1,7.789,7.786Z" transform="translate(-58.496 -241.597)" fill="#fbdf63"/>
  <g id="Grupo_673-2" data-name="Grupo 673" transform="translate(43.984 146.847)">
    <path id="Trazado_1045" data-name="Trazado 1045" d="M165.937,466.089H131.972a2.548,2.548,0,1,0,0,5.1h33.965a2.548,2.548,0,1,0,0-5.1Z" transform="translate(-129.423 -454.539)" fill="#fff"/>
    <path id="Trazado_1046" data-name="Trazado 1046" d="M131.973,437.2h30.569a2.548,2.548,0,1,0,0-5.1H131.973a2.548,2.548,0,1,0,0,5.1Z" transform="translate(-129.424 -432.103)" fill="#fff"/>
  </g>
  <path id="Trazado_1047" data-name="Trazado 1047" d="M419.33,8.472V40.944a8.48,8.48,0,0,1-8.476,8.472h-6.8a8.48,8.48,0,0,0,8.476-8.472V8.472A8.482,8.482,0,0,0,404.057,0h6.8A8.482,8.482,0,0,1,419.33,8.472Z" transform="translate(-266.741)" fill="#ffa402"/>
  <path id="Trazado_1048" data-name="Trazado 1048" d="M252.154,405.364v23.311a7.8,7.8,0,0,1-7.789,7.789h-6.8a7.8,7.8,0,0,0,7.789-7.789V405.364a7.8,7.8,0,0,0-7.789-7.786h6.8a7.8,7.8,0,0,1,7.789,7.786Z" transform="translate(-156.832 -262.464)" fill="#ffa402"/>
</svg>
