<svg xmlns="http://www.w3.org/2000/svg" width="195.585" height="158.92" viewBox="0 0 195.585 158.92">
  <g id="Grupo_553" data-name="Grupo 553" transform="translate(4120.285 43.59)">
    <g id="Grupo_547" data-name="Grupo 547" transform="translate(-4120.285 -43.59)">
      <rect id="Rectángulo_326" data-name="Rectángulo 326" width="45.064" height="44.314" transform="translate(43.617 68.759)" fill="#ff8828"/>
      <path id="Trazado_967" data-name="Trazado 967" d="M-4057.3,41.148a2.3,2.3,0,0,0,.7-.543h-10.284V84.92h5.866V41.148Z" transform="translate(4110.479 28.128)" fill="#ed6e18"/>
      <path id="Trazado_968" data-name="Trazado 968" d="M-4023.272-8.646h-42.919v31.4h44v-31.4Z" transform="translate(4110.351 37.173)" fill="#a2e7f2"/>
      <path id="Trazado_969" data-name="Trazado 969" d="M-4065.106-8.646h-1.085V22.723h5.426V-8.646Z" transform="translate(4110.351 37.172)" fill="#6edcf9"/>
      <path id="Trazado_970" data-name="Trazado 970" d="M-4018.336-19.455l-21.937-21.938a7.448,7.448,0,0,0-5.3-2.2,7.45,7.45,0,0,0-5.3,2.2l-21.937,21.938a2.87,2.87,0,0,0-.62,3.126,2.866,2.866,0,0,0,2.661,1.783h50.387a2.866,2.866,0,0,0,2.661-1.783A2.824,2.824,0,0,0-4018.336-19.455Z" transform="translate(4111.719 43.59)" fill="#f0c419"/>
      <path id="Trazado_971" data-name="Trazado 971" d="M-4065.8-16.3a2.854,2.854,0,0,1,.62-3.127l21.938-21.938a8.077,8.077,0,0,1,1.5-1.162,7.481,7.481,0,0,0-3.8-1.033,7.45,7.45,0,0,0-5.3,2.2l-21.938,21.938a2.873,2.873,0,0,0-.62,3.127,2.867,2.867,0,0,0,2.662,1.783h7.622A2.957,2.957,0,0,1-4065.8-16.3Z" transform="translate(4111.714 43.584)" fill="#f7ac16"/>
      <rect id="Rectángulo_327" data-name="Rectángulo 327" width="36.485" height="44.314" transform="translate(7.674 68.759)" fill="#49b5ce"/>
      <rect id="Rectángulo_328" data-name="Rectángulo 328" width="5.22" height="44.314" transform="translate(7.674 68.759)" fill="#34a4b7"/>
      <path id="Trazado_972" data-name="Trazado 972" d="M-4074.529,13.448h-2.713a2.574,2.574,0,0,0-2.894,2.4v4.186a4.527,4.527,0,0,1-4.522,4.522,4.511,4.511,0,0,1-4.523-4.522V16.7c0-3.256-2.48-3.256-2.48-3.256h-3.927a2.71,2.71,0,0,0-2.894,2.816v3.772A4.511,4.511,0,0,1-4103,24.559a4.511,4.511,0,0,1-4.522-4.522V16.7c0-2.894-3.022-3.256-3.022-3.256h-2.61a4.333,4.333,0,0,0-4.341,4.341V31.794a4.333,4.333,0,0,0,4.341,4.341h38.656a4.334,4.334,0,0,0,4.341-4.341V17.815A4.394,4.394,0,0,0-4074.529,13.448Z" transform="translate(4119.773 33.115)" fill="#49b5ce"/>
      <path id="Trazado_973" data-name="Trazado 973" d="M-4112.239,31.819v-14a4.348,4.348,0,0,1,2.712-4.031,4.988,4.988,0,0,0-1.084-.336h-2.61a4.334,4.334,0,0,0-4.341,4.341V31.794a4.334,4.334,0,0,0,4.341,4.341h5.323A4.311,4.311,0,0,1-4112.239,31.819Z" transform="translate(4119.785 33.115)" fill="#34a4b7"/>
      <rect id="Rectángulo_329" data-name="Rectángulo 329" width="36.485" height="9.922" transform="translate(7.674 69.275)" fill="#f0c419"/>
      <rect id="Rectángulo_330" data-name="Rectángulo 330" width="5.22" height="9.922" transform="translate(7.674 69.275)" fill="#f7ac16"/>
      <path id="Trazado_974" data-name="Trazado 974" d="M-4089.95,67.763a6.285,6.285,0,0,0-6.279,6.279V89.391h12.558V74.042A6.286,6.286,0,0,0-4089.95,67.763Z" transform="translate(4115.867 23.14)" fill="#2571a0"/>
      <path id="Trazado_975" data-name="Trazado 975" d="M-4087,68.514a6.282,6.282,0,0,0-9.225,5.555V89.418h5.892V74.043A6.243,6.243,0,0,1-4087,68.514Z" transform="translate(4115.867 23.139)" fill="#1a6287"/>
      <g id="Grupo_545" data-name="Grupo 545" transform="translate(59.87 37.751)">
        <path id="Trazado_976" data-name="Trazado 976" d="M-4040.667,67.763a6.286,6.286,0,0,0-6.279,6.279V89.391h12.558V74.042A6.269,6.269,0,0,0-4040.667,67.763Z" transform="translate(4046.947 -14.611)" fill="#2571a0"/>
        <path id="Trazado_977" data-name="Trazado 977" d="M-4040.667,2.654a6.286,6.286,0,0,0-6.279,6.279V24.282h12.558V8.933A6.269,6.269,0,0,0-4040.667,2.654Z" transform="translate(4046.947 -2.654)" fill="#2571a0"/>
      </g>
      <path id="Trazado_978" data-name="Trazado 978" d="M-4031.109,55.03h-22.3a1.99,1.99,0,0,1-1.99-1.989,1.99,1.99,0,0,1,1.99-1.989h22.3a1.991,1.991,0,0,1,1.99,1.989A1.975,1.975,0,0,1-4031.109,55.03Z" transform="translate(4108.369 26.209)" fill="#e04e4b"/>
      <path id="Trazado_979" data-name="Trazado 979" d="M-4042.246,53.04a1.99,1.99,0,0,1,1.989-1.989h-13.152a1.99,1.99,0,0,0-1.99,1.989,1.99,1.99,0,0,0,1.99,1.989h13.152A1.974,1.974,0,0,1-4042.246,53.04Z" transform="translate(4108.369 26.209)" fill="#c44137"/>
      <g id="Grupo_546" data-name="Grupo 546" transform="translate(59.87 37.751)">
        <path id="Trazado_980" data-name="Trazado 980" d="M-4037.722,68.514a6.281,6.281,0,0,0-9.225,5.555V89.418h5.892V74.043A6.294,6.294,0,0,1-4037.722,68.514Z" transform="translate(4046.947 -14.613)" fill="#1a6287"/>
        <path id="Trazado_981" data-name="Trazado 981" d="M-4037.722,3.378a6.285,6.285,0,0,0-2.945-.724,6.286,6.286,0,0,0-6.279,6.279V24.282h5.892V8.933A6.334,6.334,0,0,1-4037.722,3.378Z" transform="translate(4046.947 -2.654)" fill="#1a6287"/>
      </g>
      <path id="Trazado_982" data-name="Trazado 982" d="M-4027.395,34.7V29.147h-33.126V34.7a4.334,4.334,0,0,1-4.342,4.341h41.834A4.356,4.356,0,0,1-4027.395,34.7Z" transform="translate(4110.107 30.232)" fill="#f0c419"/>
      <path id="Trazado_983" data-name="Trazado 983" d="M-4056.929,39.044a5.307,5.307,0,0,0,2.274-4.341V29.147h-5.865V34.7a4.334,4.334,0,0,1-4.342,4.341Z" transform="translate(4110.107 30.232)" fill="#f7ac16"/>
      <path id="Trazado_984" data-name="Trazado 984" d="M-3987.988,99.6a4.565,4.565,0,0,1-4.574,4.573h-123.15a4.566,4.566,0,0,1-4.574-4.573v-.776a4.566,4.566,0,0,1,4.574-4.573h123.15a4.565,4.565,0,0,1,4.574,4.573V99.6Z" transform="translate(4120.285 18.275)" fill="#ef5854"/>
      <path id="Trazado_985" data-name="Trazado 985" d="M-3992.561,99.775h-123.15a4.562,4.562,0,0,1-4.057-2.481,4.411,4.411,0,0,0-.517,2.093v.776a4.566,4.566,0,0,0,4.574,4.573h123.15a4.565,4.565,0,0,0,4.574-4.573v-.776a4.411,4.411,0,0,0-.517-2.093A4.532,4.532,0,0,1-3992.561,99.775Z" transform="translate(4120.285 17.717)" fill="#e04e4b"/>
    </g>
    <g id="Grupo_552" data-name="Grupo 552" transform="translate(-4036.046 -7.123)">
      <path id="Trazado_986" data-name="Trazado 986" d="M-3916.21,1.081a13.74,13.74,0,0,0-12.078,7.2,30.609,30.609,0,0,1,13.273,20.161,13.7,13.7,0,0,0,12.509-13.657A13.688,13.688,0,0,0-3916.21,1.081Z" transform="translate(4000.786 -1.081)" fill="#a54925"/>
      <path id="Trazado_987" data-name="Trazado 987" d="M-3902.039,8.816A13.715,13.715,0,0,1-3912.8,29.91a30.213,30.213,0,0,0-1.22-4.664A13.737,13.737,0,0,0-3902.039,8.816Z" transform="translate(3998.166 -2.502)" fill="#933c21"/>
      <path id="Trazado_988" data-name="Trazado 988" d="M-3915.25,11.1a5.8,5.8,0,0,0-5.6,4.281,30.96,30.96,0,0,1,4.808,7.27,4.436,4.436,0,0,0,.813.072,5.817,5.817,0,0,0,5.812-5.812A5.854,5.854,0,0,0-3915.25,11.1Z" transform="translate(3999.419 -2.921)" fill="#b25830"/>
      <path id="Trazado_989" data-name="Trazado 989" d="M-3933.594,68.573a30.568,30.568,0,0,1-41.854-.167,8.483,8.483,0,0,0-3.612,6.959V91.892c12.844.263,20.138,20.186,12.916,34.511h24.2c-7.008-13.943-.358-32.932,11.719-34.416v-16.6A8.563,8.563,0,0,0-3933.594,68.573Z" transform="translate(4010.11 -13.445)" fill="#bc5f3b"/>
      <path id="Trazado_990" data-name="Trazado 990" d="M-3944.5,126.374a35.1,35.1,0,0,1-3.18-50.368,30.565,30.565,0,0,1-27.767-7.63,8.485,8.485,0,0,0-3.612,6.96V91.862c12.844.263,20.138,20.185,12.916,34.511Z" transform="translate(4010.11 -13.44)" fill="#b25830"/>
      <path id="Trazado_991" data-name="Trazado 991" d="M-3891.862,89.324l-21.812-20.712a10.366,10.366,0,0,0-7.582-2.846,31.347,31.347,0,0,1-2.726,2.3,8.484,8.484,0,0,1,3.372,6.793V91.6l.335.336c.359-.024.718-.048,1.1-.048,7.008,0,13.441,5.692,15.618,14.3a10.371,10.371,0,0,0,12.054-2.176A10.412,10.412,0,0,0-3891.862,89.324Z" transform="translate(3999.995 -12.959)" fill="#a54925"/>
      <path id="Trazado_992" data-name="Trazado 992" d="M-3900.951,104.787l-18.87-15.522v6.648l.334.336c.358-.024.718-.048,1.1-.048,7.008,0,13.441,5.692,15.618,14.3a10.371,10.371,0,0,0,12.054-2.176,10.355,10.355,0,0,0,1.865-2.751A10.381,10.381,0,0,1-3900.951,104.787Z" transform="translate(3999.23 -17.276)" fill="#933c21"/>
      <path id="Trazado_993" data-name="Trazado 993" d="M-3985.806,91.894h.263v-17a8.515,8.515,0,0,1,3.612-6.959l.048.047c-.718-.693-1.914-1.411-2.583-2.153a10.275,10.275,0,0,0-7.582,2.847l-21.812,20.712a10.36,10.36,0,0,0-.383,14.661,10.377,10.377,0,0,0,12.939,1.7C-3999.031,97.347-3992.694,91.894-3985.806,91.894Z" transform="translate(4017.095 -12.969)" fill="#a54925"/>
      <path id="Trazado_994" data-name="Trazado 994" d="M-3985.345,89.47l-18.439,15.307a10.382,10.382,0,0,1-12.1.813,10.371,10.371,0,0,0,14.8,4.425c2.272-8.347,8.61-13.824,15.5-13.824h.263V89.47Z" transform="translate(4016.873 -17.314)" fill="#933c21"/>
      <ellipse id="Elipse_71" data-name="Elipse 71" cx="16" cy="22.003" rx="16" ry="22.003" transform="translate(14.787 78.422)" fill="#bc613c"/>
      <ellipse id="Elipse_72" data-name="Elipse 72" cx="9.136" cy="12.58" rx="9.136" ry="12.58" transform="translate(21.651 97.293)" fill="#e5955e"/>
      <ellipse id="Elipse_73" data-name="Elipse 73" cx="16" cy="22.003" rx="16" ry="22.003" transform="translate(65.323 78.422)" fill="#bc613c"/>
      <g id="Grupo_548" data-name="Grupo 548" transform="translate(14.787 78.423)">
        <path id="Trazado_995" data-name="Trazado 995" d="M-3916.987,100.566a12.266,12.266,0,0,1,6.194,1.722,13.664,13.664,0,0,0-10.284-5.142c-8.849,0-16,9.853-16,22,0,9.136,4.042,16.956,9.805,20.305C-3938.656,126.3-3931.911,100.566-3916.987,100.566Z" transform="translate(3987.613 -97.146)" fill="#aa502d"/>
        <path id="Trazado_996" data-name="Trazado 996" d="M-3994.916,122.593c0-15.641,11.623-26.4,22.219-20.305a13.664,13.664,0,0,0-10.285-5.142c-8.849,0-16,9.853-16,22,0,9.136,4.042,16.956,9.806,20.305C-3992.692,135.412-3994.916,129.362-3994.916,122.593Z" transform="translate(3998.982 -97.146)" fill="#aa502d"/>
      </g>
      <ellipse id="Elipse_74" data-name="Elipse 74" cx="9.136" cy="12.58" rx="9.136" ry="12.58" transform="translate(72.187 97.293)" fill="#e5955e"/>
      <g id="Grupo_549" data-name="Grupo 549" transform="translate(21.651 72.474)">
        <path id="Trazado_997" data-name="Trazado 997" d="M-3978.71,120.8c-5.908-2.536-11.862,3.563-11.862,12.006,0,6.936,4.089,12.58,9.135,12.58a6.637,6.637,0,0,0,2.727-.574C-3987.249,141.181-3987.249,124.463-3978.71,120.8Z" transform="translate(3990.573 -95.436)" fill="#db8c52"/>
        <path id="Trazado_998" data-name="Trazado 998" d="M-3916.806,120.8c-5.907-2.536-11.863,3.587-11.863,12.006,0,8.395,5.931,14.541,11.863,12.006C-3925.345,141.182-3925.345,124.464-3916.806,120.8Z" transform="translate(3979.204 -95.436)" fill="#db8c52"/>
        <path id="Trazado_999" data-name="Trazado 999" d="M-3967.341,100.447c6.768,7.247,8.132,20.377,3.349,29.872h24.2c-4.592-9.112-3.54-21.573,2.583-29.011C-3944.214,86.408-3959.927,85.978-3967.341,100.447Z" transform="translate(3986.306 -89.859)" fill="#db8c52"/>
      </g>
      <path id="Trazado_1000" data-name="Trazado 1000" d="M-3951.891,89.877c-6.769-.311-12.293,4.425-15.45,10.571,6.959,7.439,7.988,20.641,3.349,29.872h21.668A35.092,35.092,0,0,1-3951.891,89.877Z" transform="translate(4007.958 -17.386)" fill="#d8774c"/>
      <path id="Trazado_1001" data-name="Trazado 1001" d="M-3955.792,3.572A30.744,30.744,0,0,0-3986.5,34.281a30.744,30.744,0,0,0,30.709,30.709,30.743,30.743,0,0,0,30.708-30.709A30.774,30.774,0,0,0-3955.792,3.572Z" transform="translate(4011.477 -1.538)" fill="#c9724c"/>
      <path id="Trazado_1002" data-name="Trazado 1002" d="M-3981.574,34.28a30.765,30.765,0,0,1,28.246-30.613A30.743,30.743,0,0,0-3986.5,34.28a30.731,30.731,0,0,0,33.172,30.613A30.765,30.765,0,0,1-3981.574,34.28Z" transform="translate(4011.477 -1.537)" fill="#c16b3d"/>
      <path id="Trazado_1003" data-name="Trazado 1003" d="M-3975.751,8.5a13.722,13.722,0,0,0-12.2-7.414,13.729,13.729,0,0,0-13.728,13.729,13.718,13.718,0,0,0,12.939,13.7A30.718,30.718,0,0,1-3975.751,8.5Z" transform="translate(4014.264 -1.081)" fill="#a54925"/>
      <path id="Trazado_1004" data-name="Trazado 1004" d="M-3999.474,8.816a13.715,13.715,0,0,0,10.763,21.094,30.408,30.408,0,0,1,1.22-4.664A13.737,13.737,0,0,1-3999.474,8.816Z" transform="translate(4014.261 -2.502)" fill="#933c21"/>
      <path id="Trazado_1005" data-name="Trazado 1005" d="M-3985.113,11.1a5.818,5.818,0,0,0-5.812,5.812,5.79,5.79,0,0,0,6.625,5.74,30.371,30.371,0,0,1,4.808-7.294A5.861,5.861,0,0,0-3985.113,11.1Z" transform="translate(4012.289 -2.921)" fill="#b25830"/>
      <path id="Trazado_1006" data-name="Trazado 1006" d="M-3941.4,58.265a1.843,1.843,0,0,0-1.842,1.842,3.445,3.445,0,0,1-3.443,3.444,3.445,3.445,0,0,1-3.444-3.444v-2.75a1.842,1.842,0,0,0-1.842-1.842,1.842,1.842,0,0,0-1.842,1.842v2.75a3.445,3.445,0,0,1-3.444,3.444,3.445,3.445,0,0,1-3.443-3.444,1.842,1.842,0,0,0-1.841-1.842,1.858,1.858,0,0,0-1.842,1.842,7.137,7.137,0,0,0,12.413,4.783,7.139,7.139,0,0,0,12.413-4.783A1.827,1.827,0,0,0-3941.4,58.265Z" transform="translate(4007.414 -11.078)" fill="#823119"/>
      <g id="Grupo_550" data-name="Grupo 550" transform="translate(38.751 24.802)">
        <circle id="Elipse_75" data-name="Elipse 75" cx="3.994" cy="3.994" r="3.994" transform="translate(25.543)" fill="#414356"/>
        <circle id="Elipse_76" data-name="Elipse 76" cx="3.994" cy="3.994" r="3.994" transform="translate(0 0)" fill="#414356"/>
      </g>
      <g id="Grupo_551" data-name="Grupo 551" transform="translate(38.752 24.778)">
        <path id="Trazado_1007" data-name="Trazado 1007" d="M-3934.343,35.451a4.011,4.011,0,0,1,2.009-3.468,4.075,4.075,0,0,0-2.009-.55,4,4,0,0,0-3.994,3.994,4,4,0,0,0,3.994,3.994,3.834,3.834,0,0,0,2.009-.55A3.829,3.829,0,0,1-3934.343,35.451Z" transform="translate(3963.88 -31.433)" fill="#2d313f"/>
        <path id="Trazado_1008" data-name="Trazado 1008" d="M-3965.632,35.451a4.011,4.011,0,0,1,2.009-3.468,4.072,4.072,0,0,0-2.009-.55,4,4,0,0,0-3.994,3.994,4,4,0,0,0,3.994,3.994,3.831,3.831,0,0,0,2.009-.55A3.877,3.877,0,0,1-3965.632,35.451Z" transform="translate(3969.626 -31.433)" fill="#2d313f"/>
      </g>
      <ellipse id="Elipse_77" data-name="Elipse 77" cx="9.495" cy="5.573" rx="9.495" ry="5.573" transform="translate(46.189 35.66)" fill="#a54925"/>
      <path id="Trazado_1009" data-name="Trazado 1009" d="M-3954.966,50.335c0-2.511,2.822-4.639,6.72-5.333a14.97,14.97,0,0,0-2.774-.239c-5.238,0-9.495,2.487-9.495,5.572s4.257,5.572,9.495,5.572a17.081,17.081,0,0,0,2.774-.239C-3952.144,54.976-3954.966,52.846-3954.966,50.335Z" transform="translate(4006.704 -9.103)" fill="#91381d"/>
    </g>
  </g>
</svg>
