<?xml version="1.0" encoding="utf-8"?>
<!-- Generator: Adobe Illustrator 23.0.0, SVG Export Plug-In . SVG Version: 6.00 Build 0)  -->
<svg version="1.1" id="Capa_1" xmlns="http://www.w3.org/2000/svg" xmlns:xlink="http://www.w3.org/1999/xlink" x="0px" y="0px"
	 viewBox="0 0 512 512" style="enable-background:new 0 0 512 512; fill: #FFB71B;"  xml:space="preserve">
<g>
	<g>
		<path d="M296,452c-5.5,0-10,4.5-10,10s4.5,10,10,10s10-4.5,10-10S301.5,452,296,452z"/>
	</g>
</g>
<g>
	<g>
		<path d="M436,46h-30V30c0-16.5-13.5-30-30-30H136c-16.5,0-30,13.5-30,30v16H76c-16.5,0-30,13.5-30,30
			c0,65.1,30.4,112.9,79.8,126.2c16.9,37.3,43.7,68.9,77.7,91.8c7.8,5.3,12.5,14.3,12.5,24.1v55.1c-6.9,1.8-13.1,5.3-18.3,10.5
			c-7.6,7.6-11.7,17.6-11.7,28.3h-10c-16.5,0-30,13.5-30,30v60c0,5.5,4.5,10,10,10h200c5.5,0,10-4.5,10-10v-60c0-16.5-13.5-30-30-30
			h-10c0-18.6-12.8-34.3-30-38.7v-55.1c0-9.9,4.7-18.9,12.5-24.2c34-22.9,60.7-54.6,77.7-91.8C435.6,188.9,466,141.1,466,76
			C466,59.5,452.5,46,436,46z M66,76c0-5.5,4.5-10,10-10h30v44.7c0,22.8,3.5,45.1,10.3,66.6C84.4,161.6,66,125.1,66,76z M336,432
			c5.5,0,10,4.5,10,10v50H166v-50c0-5.5,4.5-10,10-10H336z M386,110.7c0,27.3-5.4,53.9-16.2,79c-15.3,35.7-40.3,66.1-72.5,87.7
			c-13.4,9-21.3,24.2-21.3,40.8V382c0,5.5,4.5,10,10,10c11,0,20,9,20,20H206c0-5.3,2.1-10.4,5.9-14.1c3.6-3.6,8.3-5.7,13.4-5.8
			c0.3,0,0.5,0,0.8,0c5.5,0,10-4.5,10-10v-63.8c0-16.5-8-31.7-21.3-40.7c-32.2-21.7-57.2-52-72.5-87.7c-10.7-25.1-16.2-51.7-16.2-79
			V30c0-5.5,4.5-10,10-10h240c5.5,0,10,4.5,10,10V110.7z M395.7,177.3c6.8-21.5,10.3-43.8,10.3-66.6V66h30c5.5,0,10,4.5,10,10
			C446,125.1,427.6,161.5,395.7,177.3z"/>
	</g>
</g>
<g>
	<g>
		<path d="M335.1,118.2c-1.2-3.6-4.3-6.3-8.1-6.8l-43.2-6.3L264.6,66c-1.7-3.4-5.2-5.6-9-5.6c-3.8,0-7.3,2.2-9,5.6l-19.3,39.1
			l-43.2,6.3c-3.8,0.5-6.9,3.2-8.1,6.8c-1.2,3.6-0.2,7.6,2.5,10.3l31.2,30.4l-7.4,43c-0.6,3.8,0.9,7.5,4,9.8
			c3.1,2.2,7.2,2.5,10.5,0.8l38.6-20.3l38.6,20.3c3.4,1.8,7.5,1.5,10.5-0.8c3.1-2.2,4.6-6,4-9.8l-7.4-43l31.2-30.4
			C335.3,125.8,336.3,121.8,335.1,118.2z M283.6,148.2c-2.4,2.3-3.4,5.6-2.9,8.9l4.8,28.2l-25.3-13.3c-2.9-1.5-6.4-1.5-9.3,0
			l-25.3,13.3l4.8-28.2c0.6-3.2-0.5-6.6-2.9-8.9l-20.5-20l28.3-4.1c3.3-0.5,6.1-2.5,7.5-5.5L255.6,93l12.7,25.7c1.5,3,4.3,5,7.5,5.5
			l28.3,4.1L283.6,148.2z"/>
	</g>
</g>
<g>
	<g>
		<path d="M256,452h-40c-5.5,0-10,4.5-10,10s4.5,10,10,10h40c5.5,0,10-4.5,10-10S261.5,452,256,452z"/>
	</g>
</g>
<g>
	<g>
		<path d="M410,482h5.6C412.7,481.4,410.8,481.4,410,482z"/>
	</g>
</g>
</svg>
