<svg id="Layer_1" data-name="Layer 1" xmlns="http://www.w3.org/2000/svg" viewBox="0 0 473.052 81.591"><defs><style>.cls-1{fill:#fff;}.cls-2{fill:#fdbb30;}</style></defs><title>Walmart_logo</title><path class="cls-1" d="M198.543,43.084c0-7.984-3.41-15.007-14.934-15.007a27.3,27.3,0,0,0-13.177,3.142l1.877,6.416a19.3,19.3,0,0,1,9.607-2.7c5.846-.015,6.805,3.308,6.805,5.439v.5c-12.746-.02-20.8,4.391-20.8,13.383,0,5.489,4.1,10.634,11.233,10.634A12.759,12.759,0,0,0,189.4,60.342h.217s1.456,6.089,9.48,3.761a51.432,51.432,0,0,1-.558-8.49Zm-9.515,8.433a6.229,6.229,0,0,1-6.663,6.411c-2.636,0-4.73-1.5-4.73-4.66,0-4.839,5.328-6.178,11.393-6.146Z"/><path class="cls-1" d="M0,17.2S8.326,51.326,9.655,56.864c1.551,6.464,4.346,8.843,12.4,7.239l5.2-21.157c1.318-5.254,2.2-9,3.049-14.345h.149a140.007,140.007,0,0,0,2.528,14.365s2.116,9.6,3.2,14.646,4.11,8.22,12,6.491L60.576,17.2h-10l-4.23,20.276c-1.138,5.9-2.168,10.513-2.964,15.912h-.142c-.724-5.347-1.643-9.774-2.8-15.524L36.034,17.2H25.613L20.9,37.348c-1.335,6.121-2.583,11.064-3.377,16.279h-.143c-.813-4.911-1.9-11.123-3.069-17.048,0,0-2.8-14.408-3.78-19.374Z"/><path class="cls-1" d="M89,43.084c0-7.984-3.41-15.007-14.932-15.007a27.285,27.285,0,0,0-13.177,3.142l1.874,6.416a19.308,19.308,0,0,1,9.608-2.7c5.85-.015,6.807,3.308,6.807,5.439v.5c-12.747-.02-20.8,4.391-20.8,13.383,0,5.489,4.1,10.634,11.226,10.634a12.774,12.774,0,0,0,10.256-4.554h.215s1.457,6.089,9.48,3.761A51.432,51.432,0,0,1,89,55.613Zm-9.513,8.433a6.232,6.232,0,0,1-6.663,6.411c-2.636,0-4.73-1.5-4.73-4.66,0-4.839,5.328-6.178,11.393-6.146Z"/><polygon class="cls-1" points="104.877 54.145 104.877 17.205 95.354 17.205 95.354 64.103 104.877 64.103 104.877 54.145"/><path class="cls-1" d="M229.477,17.2V51.8c0,4.769.9,8.111,2.819,10.152a10.55,10.55,0,0,0,7.753,2.942,22.644,22.644,0,0,0,6.891-1.02l-.122-7.442a14.488,14.488,0,0,1-3.618.43c-3.244,0-4.331-2.078-4.331-6.36V37.268h8.293V28.3h-8.293V17.2Z"/><path class="cls-1" d="M204.893,28.872V64.1h9.825V46.063a13.463,13.463,0,0,1,.212-2.6c.727-3.78,3.618-6.195,7.766-6.195a17.948,17.948,0,0,1,2.836.251V28.3a9.492,9.492,0,0,0-2.165-.218c-3.666,0-7.837,2.367-9.588,7.44h-.267V28.872Z"/><path class="cls-1" d="M111.547,28.872V64.1h9.574V43.441a8.247,8.247,0,0,1,.449-2.883c.793-2.081,2.728-4.514,5.818-4.514,3.863,0,5.671,3.266,5.671,7.979V64.1h9.563V43.192a9.8,9.8,0,0,1,.4-2.856,6.038,6.038,0,0,1,5.744-4.292c3.917,0,5.8,3.209,5.8,8.755V64.1h9.571V43.353c0-10.943-5.556-15.276-11.829-15.276a12.756,12.756,0,0,0-6.953,1.913,14.834,14.834,0,0,0-4.462,4.388h-.141a10.048,10.048,0,0,0-9.71-6.3c-5.959,0-8.637,3.02-10.261,5.582h-.141V28.872Z"/><path class="cls-1" d="M363.866,28.733a17.078,17.078,0,0,1,12.839,5.821c.746.747.372,1.717-.374,2.464L373.2,40.451c-.746.821-1.567.448-2.239-.224a9.394,9.394,0,0,0-6.866-2.986c-5.374,0-9.107,4.18-9.107,9.48,0,5.373,3.658,9.553,9.032,9.553,3.806,0,5.821-2.089,7.314-3.806a1.618,1.618,0,0,1,2.165-.224l3.358,2.836c.821.747,1.195,1.568.6,2.463a15.439,15.439,0,0,1-13.659,7.24,18.026,18.026,0,1,1,.074-36.05Z"/><path class="cls-1" d="M397.374,28.733a17.92,17.92,0,0,1,17.69,17.913c0,9.852-7.912,18.137-17.69,18.137-9.7,0-17.615-8.285-17.615-18.137A17.905,17.905,0,0,1,397.374,28.733Zm0,27.541c5,0,9.032-4.328,9.032-9.628a9,9,0,1,0-17.988,0C388.418,51.946,392.374,56.274,397.374,56.274Z"/><path class="cls-1" d="M420.432,30.748a1.6,1.6,0,0,1,1.792-1.567A5.171,5.171,0,0,1,427.6,33.51a13.017,13.017,0,0,1,10.376-4.777c5,0,7.463,1.791,10.3,5.225a14.717,14.717,0,0,1,11.121-5.225c11.047,0,13.659,7.016,13.659,15.972V62.32a1.674,1.674,0,0,1-1.716,1.642h-5.972a1.656,1.656,0,0,1-1.641-1.642V44.482c0-4.479-1.642-7.241-5.972-7.241-5,0-6.419,3.583-6.419,3.583s.15,1.717.15,3.284V62.32a1.709,1.709,0,0,1-1.643,1.642h-6.12a1.609,1.609,0,0,1-1.642-1.642V44.482c0-4.479-1.269-7.241-5.672-7.241-4.255,0-5.822,2.986-6.643,5.375v19.7a1.708,1.708,0,0,1-1.642,1.642h-6.046a1.708,1.708,0,0,1-1.642-1.642Z"/><path class="cls-2" d="M298.734,27.468c1.911,0,3.485-.993,3.7-2.278l1.89-21.346c0-2.111-2.472-3.844-5.582-3.844s-5.572,1.733-5.572,3.844l1.885,21.346c.209,1.285,1.784,2.278,3.688,2.278Z"/><path class="cls-2" d="M287.2,34.137c.959-1.654.884-3.514-.125-4.339L269.525,17.492c-1.822-1.055-4.56.215-6.112,2.907s-1.281,5.693.541,6.747l19.425,9.046c1.217.452,2.87-.414,3.823-2.067Z"/><path class="cls-2" d="M310.28,34.125c.957,1.653,2.605,2.519,3.82,2.067l19.429-9.046c1.83-1.054,2.093-4.058.546-6.747s-4.3-3.962-6.119-2.907L310.41,29.8c-1,.825-1.078,2.685-.123,4.339Z"/><path class="cls-2" d="M298.734,54.131c1.911,0,3.485.988,3.7,2.272l1.89,21.345c0,2.114-2.472,3.843-5.582,3.843s-5.572-1.729-5.572-3.843L295.052,56.4c.209-1.284,1.784-2.272,3.688-2.272Z"/><path class="cls-2" d="M310.28,47.464c.957-1.656,2.605-2.516,3.82-2.058l19.429,9.035c1.83,1.059,2.093,4.065.546,6.756s-4.3,3.958-6.119,2.906l-17.546-12.3c-1-.834-1.078-2.693-.123-4.345Z"/><path class="cls-2" d="M287.2,47.461c.959,1.652.884,3.511-.125,4.345L269.525,64.1c-1.822,1.052-4.56-.223-6.112-2.906s-1.281-5.7.541-6.756l19.425-9.035c1.217-.458,2.87.4,3.824,2.058Z"/></svg>