<svg xmlns="http://www.w3.org/2000/svg" width="162.105" height="164.713" viewBox="0 0 162.105 164.713"><defs><style>.a{fill:#fbf1cf;}.b{fill:#fae0bd;}.c{fill:#cde9fa;}.d{fill:#b0ade2;}.e{fill:#a09cdc;}.f{fill:#88d37f;}.g{fill:#5ec682;}.h{fill:#59636f;}.i{fill:#e16e7e;}.j{fill:#e7889d;}</style></defs><g transform="translate(-4.052)"><path class="a" d="M143.089,139.3H4.052v77.9A19.988,19.988,0,0,0,24.04,237.191H123.1A19.988,19.988,0,0,0,143.089,217.2Z" transform="translate(0 -94.489)"/><path class="b" d="M4.052,139.3H143.089v9.942H4.052Z" transform="translate(0 -94.489)"/><path class="b" d="M263.452,214.714a52.783,52.783,0,0,0-48.5,73.627h48.292a19.988,19.988,0,0,0,19.987-19.988V218.563a52.5,52.5,0,0,0-19.78-3.849Z" transform="translate(-140.143 -145.64)"/><path class="c" d="M199.369,187.507H186.8a6.551,6.551,0,0,0-6.551,6.551v12.568a6.551,6.551,0,0,0,6.551,6.551h12.568a6.551,6.551,0,0,0,6.551-6.551V194.058A6.551,6.551,0,0,0,199.369,187.507Z" transform="translate(-119.514 -127.185)"/><g transform="translate(19.559 60.322)"><path class="d" d="M71.374,187.507H58.806a6.551,6.551,0,0,0-6.551,6.551v12.568a6.551,6.551,0,0,0,6.551,6.551H71.374a6.551,6.551,0,0,0,6.551-6.551V194.058A6.551,6.551,0,0,0,71.374,187.507Z" transform="translate(-52.255 -187.507)"/><path class="d" d="M314.8,187.507h12.568a6.551,6.551,0,0,1,6.551,6.551v12.568a6.551,6.551,0,0,1-6.551,6.551H314.8a6.551,6.551,0,0,1-6.551-6.551V194.058A6.55,6.55,0,0,1,314.8,187.507Z" transform="translate(-225.893 -187.507)"/><path class="d" d="M199.369,341.171H186.8a6.551,6.551,0,0,1-6.551-6.551V322.053A6.551,6.551,0,0,1,186.8,315.5h12.568a6.551,6.551,0,0,1,6.551,6.551v12.568A6.551,6.551,0,0,1,199.369,341.171Z" transform="translate(-139.073 -274.325)"/></g><path class="c" d="M71.374,341.171H58.806a6.551,6.551,0,0,1-6.551-6.551V322.053a6.551,6.551,0,0,1,6.551-6.551H71.374a6.551,6.551,0,0,1,6.551,6.551v12.568A6.551,6.551,0,0,1,71.374,341.171Z" transform="translate(-32.696 -214.004)"/><g transform="translate(70.519 69.074)"><path class="e" d="M329.644,214.714a52.484,52.484,0,0,0-21.4,4.535v5.831a6.551,6.551,0,0,0,6.551,6.551h12.568a6.551,6.551,0,0,0,6.551-6.551V214.887q-2.115-.17-4.273-.173Z" transform="translate(-276.853 -214.714)"/><path class="e" d="M220,315.5h-5.247a52.5,52.5,0,0,0-4.089,20.366q0,2.684.265,5.3H220a6.55,6.55,0,0,0,6.551-6.551V322.053A6.551,6.551,0,0,0,220,315.5Z" transform="translate(-210.662 -283.078)"/><circle class="f" cx="42.848" cy="42.848" r="42.848" transform="translate(9.943 9.943)"/><path class="g" d="M315.017,326.5c-57.244-1.181-59.134-52.532-48.3-69.02a42.852,42.852,0,1,0,48.3,69.02Z" transform="translate(-231.625 -243.723)"/><circle class="a" cx="30.011" cy="30.011" r="30.011" transform="translate(22.779 22.779)"/><path class="b" d="M288.62,318.375A30.016,30.016,0,0,0,323.555,365.3C296.695,357.954,288.2,336.037,288.62,318.375Z" transform="translate(-258.69 -285.027)"/><g transform="translate(39.841 39.842)"><path class="h" d="M347.455,353.921a2.407,2.407,0,0,1-1.706-.707l-10.536-10.536a2.413,2.413,0,1,1,3.412-3.412L349.161,349.8a2.413,2.413,0,0,1-1.706,4.119Z" transform="translate(-334.506 -338.559)"/><path class="i" d="M379.4,376.136h-9.727a2.413,2.413,0,1,1,0-4.826H379.4a2.413,2.413,0,0,1,0,4.826Z" transform="translate(-356.722 -360.774)"/></g></g><path class="j" d="M143.089,68.5H4.052V48.766A13.843,13.843,0,0,1,17.895,34.923H129.246a13.843,13.843,0,0,1,13.843,13.843V68.5Z" transform="translate(0 -23.688)"/><path class="h" d="M77.238,0a8.309,8.309,0,0,0-8.309,8.309V19.716a8.309,8.309,0,0,0,16.618,0V8.309A8.309,8.309,0,0,0,77.238,0Z" transform="translate(-44.006)"/><path class="h" d="M202.628,0a8.309,8.309,0,0,0-8.309,8.309V19.716a8.309,8.309,0,1,0,16.618,0V8.309A8.309,8.309,0,0,0,202.628,0Z" transform="translate(-129.057)"/><path class="h" d="M328.017,0a8.309,8.309,0,0,0-8.309,8.309V19.716a8.309,8.309,0,1,0,16.618,0V8.309A8.309,8.309,0,0,0,328.017,0Z" transform="translate(-214.108)"/></g></svg>