<svg xmlns="http://www.w3.org/2000/svg" xmlns:xlink="http://www.w3.org/1999/xlink" width="1254.819" height="451.861" viewBox="0 0 1254.819 451.861">
  <defs>
    <linearGradient id="linear-gradient" x1="0.5" x2="0.5" y2="1" gradientUnits="objectBoundingBox">
      <stop offset="0" stop-color="#ed7d29"/>
      <stop offset="1" stop-color="#773f15"/>
    </linearGradient>
    <linearGradient id="linear-gradient-2" x1="0.5" x2="0.5" y2="1" gradientUnits="objectBoundingBox">
      <stop offset="0" stop-color="#fff"/>
      <stop offset="1" stop-color="#cecece"/>
    </linearGradient>
    <linearGradient id="linear-gradient-3" x1="0.5" x2="0.5" y2="1" gradientUnits="objectBoundingBox">
      <stop offset="0" stop-color="#fff"/>
      <stop offset="1" stop-color="#ededed"/>
    </linearGradient>
    <linearGradient id="linear-gradient-4" x1="0.5" x2="0.5" y2="1" gradientUnits="objectBoundingBox">
      <stop offset="0" stop-color="#fff"/>
      <stop offset="1" stop-color="#e8e8e8"/>
    </linearGradient>
    <linearGradient id="linear-gradient-5" x1="0.5" x2="0.5" y2="1" gradientUnits="objectBoundingBox">
      <stop offset="0" stop-color="#e59942"/>
      <stop offset="1" stop-color="#faaf58"/>
    </linearGradient>
    <linearGradient id="linear-gradient-7" x1="0.5" x2="0.5" y2="1" gradientUnits="objectBoundingBox">
      <stop offset="0" stop-color="#fbf7e2"/>
      <stop offset="1" stop-color="#d0cdbe"/>
    </linearGradient>
  </defs>
  <g id="Grupo_1004" data-name="Grupo 1004" transform="translate(10470 19841.41)">
    <g id="Grupo_1002" data-name="Grupo 1002" transform="translate(-0.182)">
      <path id="Trazado_1373" data-name="Trazado 1373" d="M-10446.16-18227.2c37.692,12.822,620.361,7.225,649.917,0s87.175-17.135,59.127-118.971-157.372-72.814-157.372-72.814,26.56-172.154-131.729-171.967-134.806,145.275-134.806,145.275-80.463-29.68-116.05,14.447,0,85.059,0,85.059-84.985-39.557-147.729,0S-10483.853-18240.021-10446.16-18227.2Z" transform="translate(496.569 -1250.459)" fill="#bbc1c3"/>
      <path id="Trazado_1369" data-name="Trazado 1369" d="M-17460.008-22240.117s10.252,2.389,12.381,4.662,16.205,47.646,16.314,48.52a20.98,20.98,0,0,1,0,3.873c-.127.623-7.994,9.637-6.672,10.473s8.461-9.262,8.461-9.262,3.748,12.738,4.908,12.432-2.168-12.432-2.168-12.432,12.174,7.223,12.676,6.049-12.254-8.867-12.676-9.189a15.193,15.193,0,0,1-2.74-3.123c-.445-.92-12.348-46.682-14.816-49.166s-11.508-6.346-11.508-6.346-3.43-1.139-5.232.824S-17460.008-22240.117-17460.008-22240.117Z" transform="matrix(0.978, 0.208, -0.208, 0.978, 2617.155, 5752.938)" fill="url(#linear-gradient)"/>
      <path id="Trazado_1364" data-name="Trazado 1364" d="M-17481.535-22262.293s-86.729-69.436-100.682-72.621-86.975,2.221-85.014,6.832c.617,1.453,15.9,5.689,15.9,5.689s-12.6,4.139-6.365,6.756,15.848,3.645,15.848,3.645-10.207,6.008-4.221,7.7,16.3.984,16.3.984-5.988,7.3-1.264,8.057,16.135-2.449,16.135-2.449-3.109,7.693,2.5,7.469,17.18-5.02,17.18-5.02-2.145,7.395,1.973,7.266,11.961-2.246,11.961-2.246-1.32,4.219,2.523,5.148c3.6.869,10.352.8,17.9,2.113,1.9.33-1.428,4.979,2.691,4.916s7.438-2.109,9.461-1.092c17.5,8.8,25.1,19.039,41.059,27.391s22.779,6.016,22.779,6.016Z" transform="translate(7636.244 2605.072)" fill="url(#linear-gradient-2)"/>
      <path id="Trazado_1376" data-name="Trazado 1376" d="M-17345.178-22266.287s-5.17,2.061-25.057-13.582-49.52-46.971-54.492-48.986-10.717-1.234-21.068-5.191c-12.348-4.721-15.881-8.135-15.881-8.135s1.871,5.621,13.482,10.793,18.438,6.3,23.467,8.039,32.838,30.326,52.725,45.178S-17345.178-22266.287-17345.178-22266.287Z" transform="matrix(0.998, -0.07, 0.07, 0.998, 9003.242, 1347.021)" fill="#c7c7c7"/>
      <path id="Trazado_1362" data-name="Trazado 1362" d="M-17489.818-22254.826a92.488,92.488,0,0,1-11.17-22.506c-4.691-13.658-8.568-28.375-8.418-32.125s11.494-10.9,13.121-21.824-6.611-21.879-6.611-21.879,7.842.02,6.611-1.908-9.889-.07-12.3-2.254,4.992-6.281,2.654-6.482-8.111,5.676-12,5.676-1.941-6.441-3.559-5.676-2.912,8.736-2.912,8.736a33.819,33.819,0,0,0-7.945,8.311c-2.975,4.768-3.785,8.824-3.785,15.477s2.32,9.318,5.115,12.537,9.854,3.281,13.205,9.287,5.531,25.289,11.883,41.16,12.461,22.326,12.461,22.326-1.7,7.447,1.389,11.863c1.229,1.756,6.643,5.721,13.16,6.064s13.936-5.27,13.936-5.27,5.912-4.174,10.443-15.432,6.748-30.4,6.748-30.4-17.449-2.535-18.135-2.285-10.205,8.17-16.178,14.82S-17489.818-22254.826-17489.818-22254.826Z" transform="translate(7636.244 2605.072)" fill="url(#linear-gradient-3)"/>
      <path id="Trazado_1363" data-name="Trazado 1363" d="M-17474.125-22262.977c.668-12.77.709-11.475,17.326-33.771s40.938-51.93,49.135-55.412,116.129-1.125,118.988,4.234a21.324,21.324,0,0,1-8.43,7.336c-5.316,2.354-19.988,2.076-19.988,2.076s14.412,7.271,12.828,11.244c-.83,2.076-18.145,1.291-18.145,1.291s8.5,5.852,7.568,8.676c-1.436,4.344-15.83,0-15.83,0s2.8,8.684,0,10.174c-2.65,1.41-9.242-2.643-12.953-4.617s.859,11.322-1.893,12.617c-3.021,1.42-8.211-5.895-11.506-8s-.436,14.3-3.742,13.387-5.537-5.584-8.687-7.744-.434,12.586-4.934,12.006-8.66-4.83-10.137-4.262c-2.451.943,1.979,6.068,0,7.375-4.229,2.785-10.7,1.744-10.91,2.043-.6.865-27.25,26.367-39.488,33.928C-17452.318-22239.646-17474.793-22250.207-17474.125-22262.977Z" transform="translate(7636.244 2605.072)" fill="url(#linear-gradient-4)"/>
      <g id="Grupo_980" data-name="Grupo 980" transform="translate(-11116.656 -19865.932) scale(0.875 1)">
        <g id="Elipse_401" data-name="Elipse 401" transform="translate(1407 134)" fill="none" stroke="#d5d5d5" stroke-width="1">
          <ellipse cx="5.5" cy="6" rx="5.5" ry="6" stroke="none"/>
          <ellipse cx="5.5" cy="6" rx="5" ry="5.5" fill="none"/>
        </g>
        <ellipse id="Elipse_403" data-name="Elipse 403" cx="3.5" cy="4" rx="3.5" ry="4" transform="translate(1408 137)" fill="#939393"/>
        <ellipse id="Elipse_404" data-name="Elipse 404" cx="2.5" cy="3" rx="2.5" ry="3" transform="translate(1409 138)" fill="#cbffe5"/>
        <ellipse id="Elipse_406" data-name="Elipse 406" cx="1.5" cy="2" rx="1.5" ry="2" transform="translate(1410 139)" fill="#939393"/>
        <circle id="Elipse_405" data-name="Elipse 405" cx="1.5" cy="1.5" r="1.5" transform="translate(1411 138)" fill="#fbfbfb"/>
      </g>
      <g id="Grupo_979" data-name="Grupo 979" transform="translate(-10935.314 -19865.928) scale(0.743 1)">
        <g id="Elipse_402" data-name="Elipse 402" transform="translate(1392 136)" fill="#fbfbfb" stroke="#d5d5d5" stroke-width="1">
          <ellipse cx="3.5" cy="5" rx="3.5" ry="5" stroke="none"/>
          <ellipse cx="3.5" cy="5" rx="3" ry="4.5" fill="none"/>
        </g>
        <g id="Elipse_407" data-name="Elipse 407" transform="translate(1394 139)" fill="#cbffe5" stroke="#939393" stroke-width="0.5">
          <ellipse cx="2" cy="3" rx="2" ry="3" stroke="none"/>
          <ellipse cx="2" cy="3" rx="1.75" ry="2.75" fill="none"/>
        </g>
        <ellipse id="Elipse_408" data-name="Elipse 408" cx="1" cy="2" rx="1" ry="2" transform="translate(1395 140)" fill="#939393"/>
        <circle id="Elipse_409" data-name="Elipse 409" cx="0.5" cy="0.5" r="0.5" transform="translate(1396 140)" fill="#fbfbfc"/>
      </g>
      <path id="Trazado_1361" data-name="Trazado 1361" d="M-17533.725-22325.479c10.553-2.791,13.785,1.477,22.125,0s11.338-9.7,11.236-5.91-1.359,7.867-15.652,13.818-79.367,20.992-83.225,18.9S-17544.277-22322.687-17533.725-22325.479Z" transform="translate(7636.244 2605.072)" fill="url(#linear-gradient-5)"/>
      <path id="Trazado_1367" data-name="Trazado 1367" d="M-17459.746-22239.514s11.865,2.764,14.328,5.395,18.756,55.145,18.883,56.154a24.315,24.315,0,0,1,0,4.482c-.148.721-9.252,11.152-7.723,12.121s9.793-10.719,9.793-10.719,4.338,14.742,5.68,14.387-2.508-14.387-2.508-14.387,14.088,8.359,14.67,7-14.182-10.264-14.67-10.635a17.613,17.613,0,0,1-3.172-3.615c-.516-1.064-14.291-54.025-17.148-56.9s-13.318-7.346-13.318-7.346-3.969-1.318-6.055.955S-17459.746-22239.514-17459.746-22239.514Z" transform="translate(7634.033 2604.072)" fill="url(#linear-gradient)"/>
      <path id="Trazado_1365" data-name="Trazado 1365" d="M-17503.123-22327.945a51.92,51.92,0,0,1-18.594,9.316c-10.293,2.678-77.594,19.555-76.861,19.555s67.775-15.781,79.789-19.555S-17502.191-22328.727-17503.123-22327.945Z" transform="translate(7636.244 2605.072)" fill="#e59942" stroke="#c78336" stroke-linecap="round" stroke-width="1"/>
      <path id="Trazado_1371" data-name="Trazado 1371" d="M-17461.674-22266.287s5.17,2.061,25.057-13.582,49.52-46.971,54.492-48.986,10.717-1.234,21.068-5.191c12.348-4.721,15.881-8.135,15.881-8.135s-1.871,5.621-13.482,10.793-18.437,6.3-23.467,8.039-32.838,30.326-52.725,45.178S-17461.674-22266.287-17461.674-22266.287Z" transform="translate(7636.244 2605.072)" fill="#e2e2e2"/>
      <path id="Trazado_1375" data-name="Trazado 1375" d="M-10446.16-18227.2c20.542,6.988,200.277,18.4,366.524,17.168,139.31-1.033,269.944-13.881,283.393-17.168,29.556-7.225,88.632-36.8,67.026-126.145s-165.271-65.641-165.271-65.641,26.56-172.154-131.729-171.967-134.806,145.275-134.806,145.275-80.463-29.68-116.05,14.447,0,85.059,0,85.059-84.985-39.557-147.729,0S-10483.853-18240.021-10446.16-18227.2Z" transform="translate(509.569 -1250.459)" fill="#e8f9ff"/>
      <path id="Trazado_1372" data-name="Trazado 1372" d="M-9769.12-18231.666c-31.061,15.838-622.566,8.166-637.7,4.467-29.556-7.225-87.175-17.135-59.127-118.971s157.372-72.814,157.372-72.814-26.56-172.154,131.729-171.967,134.806,145.275,134.806,145.275,80.463-29.68,116.05,14.447,0,85.059,0,85.059,84.985-39.557,147.729,0S-9738.06-18247.5-9769.12-18231.666Z" transform="translate(20.568 -1186.164)" fill="#e5f8ff"/>
      <path id="Trazado_1374" data-name="Trazado 1374" d="M-9756.9-18227.2c-29.673,18.275-192.632,24.678-352.94,23.723-147.127-.877-245.562-7.4-277.246-17.406s-103.237-46.635-78.857-125.287,157.372-72.814,157.372-72.814-26.56-172.154,131.729-171.967,134.806,145.275,134.806,145.275,80.463-29.68,116.05,14.447,0,85.059,0,85.059,102.721-43.209,153.063-5.639S-9727.229-18245.475-9756.9-18227.2Z" transform="translate(1.1 -1186.164)" fill="#fafbfa"/>
      <path id="Trazado_1370" data-name="Trazado 1370" d="M-17579.723-22302.943s5.508,9.645,7.527,15.2,1.605,6.863,0,6.506-3.893-2.385-6.422-7.937a52.593,52.593,0,0,1-3.527-11.629l-1.316.268s-.324,14.879-1.615,35.771c-.865,14-3.727,30-2.146,40.863,3.854,26.5,26.412,28.121,30.145,28.289s22.5-4.066,27.184-18.686-2.254-32.387-9.984-41.676-15.977-19.129-22.791-27.35c-10.006-12.074-14.266-20.234-14.266-20.234Z" transform="translate(7636.244 2605.072)" fill="url(#linear-gradient-7)"/>
    </g>
    <g id="Grupo_1003" data-name="Grupo 1003" transform="translate(-10961 -20041)">
      <text id="Hemos_anotado_este_Producto_en_tu_wishlist" data-name="Hemos anotado este Producto en tu wishlist" transform="translate(1498 565)" fill="#4b4b4b" font-size="40" font-family="MyriadPro-Semibold, Myriad Pro" font-weight="600"><tspan x="-758.6" y="0">Hemos anotado este Producto en tu wishlist</tspan></text>
      <text id="_Excelente_" data-name="¡Excelente!" transform="translate(1235 499)" fill="#4b4b4b" font-size="50" font-family="MyriadPro-Semibold, Myriad Pro" font-weight="600"><tspan x="-232.45" y="0">¡Excelente!</tspan></text>
    </g>
  </g>
</svg>
